<svg xmlns="http://www.w3.org/2000/svg" viewBox="0 0 1000 1000"><defs><style>.cls-1{fill:#fff;}</style></defs><title>svg-navigation-media-icons-spotify-light</title><g id="Calque_2" data-name="Calque 2"><g id="svg-navigation-media-icons-spotify-light"><path id="svg-navigation-media-icons-spotify-light-2" data-name="svg-navigation-media-icons-spotify-light" class="cls-1" d="M500,0C223.85764,0,0,223.85758,0,500s223.85764,500,500,500,500-223.85764,500-500S776.14236,0,500,0ZM695.52693,730.77528a36.57543,36.57543,0,0,1-23.75811-4.37393c-113.26536-63.81752-285.27516-78.86962-435.67838-47.184-20.76493,5.78962-56.97021-33.72713-17.17038-57.78634a35.82031,35.82031,0,0,1,10.10167-4.08374c149.95343-36.3495,363.62512-12.41655,476.65725,55.81888a32.83947,32.83947,0,0,1,6.38589,4.99455C731.52824,697.83923,720.78567,726.60151,695.52693,730.77528Zm56.07355-129.23842a40.38025,40.38025,0,0,1-27.358-5.262C593.86626,519.221,395.77333,501.2207,222.5097,539.72517c-23.92274,7.0275-65.57469-40.72589-19.70673-69.87376a40.24285,40.24285,0,0,1,11.63937-4.95147c172.75113-44.145,418.81723-15.45274,548.91952,66.94485a38.03272,38.03272,0,0,1,7.349,6.03337C793.10413,561.65668,780.69707,596.45841,751.60048,601.53686ZM819.4066,451.23181a46.423,46.423,0,0,1-32.39714-5.70985C631.35089,355.11707,397.26,338.2113,193.83338,389.38c-28.04568,9.14539-78.33885-47.86629-24.94807-84.457a46.80061,46.80061,0,0,1,13.60806-6.31258c202.68452-58.01356,493.6207-29.31438,649.08648,67.59446a45.10327,45.10327,0,0,1,8.81528,7.15061C867.388,401.70246,853.60243,444.32612,819.4066,451.23181Z"/></g></g></svg>