<?xml version="1.0" encoding="utf-8"?>
<!-- Generator: Adobe Illustrator 24.0.1, SVG Export Plug-In . SVG Version: 6.00 Build 0)  -->
<svg version="1.1" id="Calque_1" xmlns="http://www.w3.org/2000/svg" xmlns:xlink="http://www.w3.org/1999/xlink" x="0px" y="0px"
	 viewBox="0 0 27 27" style="enable-background:new 0 0 27 27;" xml:space="preserve">
<style type="text/css">
	.st0{fill:#FFFFFF;}
</style>
<title>svg-navigation-media-icons-instagram-light</title>
<path class="st0" d="M20,1H7C3.7,1,1,3.7,1,7V20c0,3.3,2.7,6,6,6H20c3.3,0,6-2.7,6-6V7C26,3.7,23.3,1,20,1z M13.5,19.5
	c-3.3,0-6-2.7-6-6s2.7-6,6-6s6,2.7,6,6S16.8,19.5,13.5,19.5z M20.8,7.4c-0.9,0-1.7-0.8-1.7-1.7c0-0.9,0.8-1.7,1.7-1.7
	c0.9,0,1.7,0.8,1.7,1.7C22.5,6.7,21.7,7.4,20.8,7.4z"/>
</svg>
